<svg width="20" height="19" viewBox="0 0 20 19" fill="none" xmlns="http://www.w3.org/2000/svg">
<path d="M10 0C6.474 0 4.09483 2.306 3.29883 5H3L1.96289 7.07422C0.760891 8.08922 0 9.531 0 11C0 14.078 2.6483 16.1212 5.5293 16.7832C6.3373 18.1032 8.006 19 10 19C11.994 19 13.6627 18.1032 14.4707 16.7832C17.3517 16.1212 20 14.078 20 11C20 9.531 19.2391 8.08922 18.0371 7.07422L17.9629 6.92578L18.4883 6.63672C19.9033 5.81872 20.3761 4.09056 19.6211 2.72656L19.2441 2L18.4883 2.45508C17.5123 3.01908 16.9997 4.01534 17.0137 5.02734L17 5H16.7012C15.9052 2.306 13.526 0 10 0ZM10 2C12.412 2 13.8914 3.43 14.5664 5H5.43359C6.10859 3.43 7.588 2 10 2ZM7 6C8.1 6 9 6.4 9 7C9 7.028 8.98838 7.05308 8.98438 7.08008C8.12337 7.22008 7.36442 7.54828 6.73242 7.98828C5.75942 7.92828 5 7.55 5 7C5 6.4 5.9 6 7 6ZM13 6C14.1 6 15 6.4 15 7C15 7.55 14.2406 7.92828 13.2676 7.98828C12.6356 7.54928 11.8756 7.22203 11.0156 7.08203C11.0106 7.05403 11 7.028 11 7C11 6.4 11.9 6 13 6ZM2.84375 9H5.6875C5.2605 9.591 5 10.269 5 11H7C7 9.9 8.4 9 10 9C11.6 9 13 9.9 13 11H15C15 10.269 14.7395 9.591 14.3125 9H17.1562C17.6773 9.587 18 10.298 18 11C18 13.511 15.0357 14.852 12.9297 15.002L12.9512 15.3203C12.7192 16.2713 11.49 17 10 17C8.51 17 7.27983 16.2713 7.04883 15.3203L7.07227 15.002C4.96527 14.852 2 13.511 2 11C2 10.298 2.32275 9.587 2.84375 9ZM12.0078 11.9492C11.8768 12.2492 10.492 13 8 13V15C10.89 15 14 14.061 14 12L12.0078 11.9492Z" fill="black"/>
</svg>
